<?xml version="1.0" standalone="no"?>
<!DOCTYPE svg PUBLIC "-//W3C//DTD SVG 20010904//EN"
 "http://www.w3.org/TR/2001/REC-SVG-20010904/DTD/svg10.dtd">
<svg version="1.0" xmlns="http://www.w3.org/2000/svg"
 width="512.000000pt" height="512.000000pt" viewBox="0 0 512.000000 512.000000"
 preserveAspectRatio="xMidYMid meet">
<metadata>
Created by potrace 1.11, written by Peter Selinger 2001-2013
</metadata>
<g transform="translate(0.000000,512.000000) scale(0.100000,-0.100000)"
fill="#000000" stroke="none">
<path d="M405 5108 c-160 -30 -314 -166 -377 -334 l-23 -59 0 -2155 0 -2155
23 -59 c64 -169 213 -300 380 -335 75 -16 4229 -16 4304 0 189 39 358 208 397
397 16 75 16 4229 0 4304 -35 167 -166 316 -335 380 l-59 23 -2130 1 c-1323 1
-2149 -2 -2180 -8z m2488 -923 c130 -34 207 -98 248 -204 17 -43 23 -85 27
-182 l4 -126 49 33 c96 64 242 102 353 90 267 -27 480 -240 561 -559 65 -257
51 -654 -34 -983 -101 -387 -300 -719 -563 -940 -308 -258 -635 -387 -1014
-401 -494 -18 -885 118 -1175 408 -272 272 -398 605 -399 1050 0 534 146 969
437 1302 278 317 650 490 1148 531 92 7 299 -3 358 -19z"/>
<path d="M2747 3539 c-195 -27 -355 -115 -518 -286 -152 -159 -236 -320 -291
-553 -28 -122 -36 -412 -14 -536 59 -339 236 -562 480 -605 137 -23 282 7 398
85 145 96 285 296 329 472 10 40 10 42 -50 125 -209 291 -270 630 -179 994 13
51 45 135 75 195 29 57 51 106 49 107 -8 9 -221 10 -279 2z"/>
</g>
</svg>
